<svg enable-background="new 0 0 24 24" viewBox="0 0 24 24" xmlns="http://www.w3.org/2000/svg"><path d="m11.5 3.8 8.5 2-2.5 7.2-1.7.8-4.3-2.3-4.2 2.3-1.8-.8-2.5-7.2z" fill="#fff"/><path d="m11.5 11.5-4.2 2.3 2 5.7h4.5l2-5.7z" fill="#fff"/><path d="m7.3 13.8-1.8-.8-1.7.8-3.3 3.2 4 4 3.8-4.3z" fill="#fff"/><path d="m15.8 13.8 1.7-.8 1.8.8 3.2 3.2-4 4-3.8-4.3z" fill="#fff"/><path d="m11.5 19.5h2.3l2-5.7-4.3-2.3z" fill="#cce7ff"/><path d="m20 5.8-8.5-2-8.5 2 .7 2 7.8-2 7.8 2z" fill="#cce7ff"/><path d="m20 5.8-2.5 7.2-1.7.8-4.3-2.3-4.2 2.3-1.8-.8z" fill="#cce7ff"/><path d="m2.5 19 2 2 3.8-4.3-1-2.9z" fill="#cce7ff"/><path d="m20.5 19-2 2-3.8-4.3 1.1-2.9z" fill="#cce7ff"/><g fill="none"><path d="m11.5 3.8 8.5 2-2.5 7.2-1.7.8-4.3-2.3-4.2 2.3-1.8-.8-2.5-7.2z" stroke="#1078ff" stroke-linecap="round" stroke-linejoin="round" stroke-miterlimit="10"/><path d="m7.3 13.8 2 5.7h4.5l2-5.7" stroke="#1078ff" stroke-linecap="round" stroke-linejoin="round" stroke-miterlimit="10"/><path d="m10 14.5h3" stroke="#1078ff" stroke-linecap="round" stroke-linejoin="round" stroke-miterlimit="10"/><path d="m11 16.5h1" stroke="#1078ff" stroke-linecap="round" stroke-linejoin="round" stroke-miterlimit="10"/><path d="m5.5 13-1.7.8-3.3 3.2 4 4 3.8-4.3" stroke="#1078ff" stroke-linecap="round" stroke-linejoin="round" stroke-miterlimit="10"/><path d="m2 15.5 3.9 3.9" stroke="#1078ff" stroke-linecap="round" stroke-linejoin="round" stroke-miterlimit="10"/><path d="m17.5 13 1.8.8 3.2 3.2-4 4-3.8-4.3" stroke="#1078ff" stroke-linecap="round" stroke-linejoin="round" stroke-miterlimit="10"/><path d="m21 15.5-3.9 3.9" stroke="#1078ff" stroke-linecap="round" stroke-linejoin="round" stroke-miterlimit="10"/><path d="m3.7 7.8 7.8-2 7.8 2" stroke="#1078ff" stroke-linecap="round" stroke-linejoin="round" stroke-miterlimit="10"/><path d="m0 0h24v24h-24z"/></g></svg>